<!DOCTYPE svg PUBLIC "-//W3C//DTD SVG 1.1//EN" "http://www.w3.org/Graphics/SVG/1.1/DTD/svg11.dtd">

<!-- Uploaded to: SVG Repo, www.svgrepo.com, Transformed by: SVG Repo Mixer Tools -->
<svg version="1.1" id="Uploaded to svgrepo.com" xmlns="http://www.w3.org/2000/svg" xmlns:xlink="http://www.w3.org/1999/xlink" width="127px" height="127px" viewBox="-3.2 -3.2 38.40 38.40" xml:space="preserve" fill="#000000">

<g id="SVGRepo_bgCarrier" stroke-width="0" transform="translate(0,0), scale(1)">

<rect x="-3.2" y="-3.2" width="38.40" height="38.40" rx="19.2" fill="#c3e0ea" strokewidth="0"/>

</g>

<g id="SVGRepo_tracerCarrier" stroke-linecap="round" stroke-linejoin="round"/>

<g id="SVGRepo_iconCarrier"> <style type="text/css"> .bentblocks_een{fill:#0B1719;} .st0{fill:#0B1719;} </style> <path class="bentblocks_een" d="M4,10h6V4H4V10z M6,6h2v2H6V6z M28,6v2H14V6H28z M4,19h6v-6H4V19z M6,15h2v2H6V15z M14,15h14v2H14 V15z M4,28h6v-6H4V28z M6,24h2v2H6V24z M14,24h14v2H14V24z"/> </g>

</svg>